<mxfile host="app.diagrams.net" modified="2023-04-05T10:57:31.871Z" agent="Mozilla/5.0 (Macintosh; Intel Mac OS X 10_15_7) AppleWebKit/605.1.15 (KHTML, like Gecko) Version/16.3 Safari/605.1.15" version="21.1.4" etag="mv-EnajStWVZFPEdlux_" type="github">
  <diagram name="Pagina-1" id="YDagzBSbdERTEKzZTwCW">
    <mxGraphModel>
      <root>
        <mxCell id="0" />
        <mxCell id="1" parent="0" />
      </root>
    </mxGraphModel>
  </diagram>
</mxfile>
